<?xml version="1.0" encoding="UTF-8" standalone="no"?>
<!-- Created with Inkscape (http://www.inkscape.org/) -->

<svg
   version="1.1"
   id="svg1"
   width="250"
   height="107"
   viewBox="0 0 250 107"
   sodipodi:docname="eyes-set-white-normal.svg"
   inkscape:version="1.3.2 (091e20ef0f, 2023-11-25)"
   xmlns:inkscape="http://www.inkscape.org/namespaces/inkscape"
   xmlns:sodipodi="http://sodipodi.sourceforge.net/DTD/sodipodi-0.dtd"
   xmlns:xlink="http://www.w3.org/1999/xlink"
   xmlns="http://www.w3.org/2000/svg"
   xmlns:svg="http://www.w3.org/2000/svg">
  <defs
     id="defs1" />
  <sodipodi:namedview
     id="namedview1"
     pagecolor="#00ff00"
     bordercolor="#666666"
     borderopacity="1.0"
     inkscape:showpageshadow="2"
     inkscape:pageopacity="0.0"
     inkscape:pagecheckerboard="false"
     inkscape:deskcolor="#d1d1d1"
     showgrid="true"
     inkscape:zoom="14.809644"
     inkscape:cx="194.09649"
     inkscape:cy="36.395202"
     inkscape:window-width="1920"
     inkscape:window-height="1043"
     inkscape:window-x="0"
     inkscape:window-y="0"
     inkscape:window-maximized="1"
     inkscape:current-layer="layer11">
    <inkscape:grid
       id="grid1"
       units="px"
       originx="0"
       originy="0"
       spacingx="1"
       spacingy="1"
       empcolor="#0099e5"
       empopacity="0.30196078"
       color="#0099e5"
       opacity="0.14901961"
       empspacing="5"
       dotted="false"
       gridanglex="30"
       gridanglez="30"
       visible="true" />
  </sodipodi:namedview>
  <image
     width="250"
     height="107"
     preserveAspectRatio="none"
     style="display:inline;fill:#000000;fill-opacity:1;image-rendering:optimizeSpeed"
     xlink:href="eyes-set-white-normal.png"
     id="image1" />
  <g
     inkscape:groupmode="layer"
     id="layer10"
     inkscape:label="r-white"
     style="display:inline">
    <path
       style="fill:#ffffff;fill-opacity:1;stroke:none;stroke-width:1px;stroke-linecap:butt;stroke-linejoin:miter;stroke-opacity:1"
       d="M 11,84 C 8.901874,80.050586 9.0165894,17.061982 43,16 75,15 84,55 84,63 84,117 28,116 11,84 Z"
       id="path2"
       sodipodi:nodetypes="ssss" />
    <rect
       style="fill:#d1cec7;fill-opacity:1;stroke:none;stroke-width:6;stroke-linecap:round;stroke-linejoin:round"
       id="rect2"
       width="42"
       height="10"
       x="30"
       y="17"
       ry="0" />
    <path
       style="fill:#483738;fill-opacity:1;stroke:none;stroke-width:1px;stroke-linecap:butt;stroke-linejoin:miter;stroke-opacity:1"
       d="M 9,92 C 2.5074007,82.261101 -3,64 10,36 10,36 1,38 1,34 1,30 16,27 16,27 35,-1 62,4 67,10.480882 71.328871,16.091862 77,23 77,23 82,29 78,33 73,28 66.010708,21.010708 51.071027,14.378136 42,20 19.660545,33.84511 0.50265421,58.768027 14,89 c 2.195393,4.917342 -3,6 -5,3 z"
       id="path1"
       sodipodi:nodetypes="sczcscssss"
       inkscape:label="path1" />
  </g>
  <g
     inkscape:groupmode="layer"
     id="layer11"
     inkscape:label="l-white"
     style="display:inline">
    <path
       style="display:inline;fill:#ffffff;fill-opacity:1;stroke:none;stroke-width:1px;stroke-linecap:butt;stroke-linejoin:miter;stroke-opacity:1"
       d="m 200,10 c 45,0 70,91 0,91 -47,0 -44,-91 0,-91 z"
       id="path4"
       sodipodi:nodetypes="sss" />
    <path
       style="fill:#d1cec7;fill-opacity:1;stroke:none;stroke-width:1px;stroke-linecap:butt;stroke-linejoin:miter;stroke-opacity:1"
       d="M 171,22 230,26 203,3 Z"
       id="path5" />
    <path
       style="display:inline;fill:#483738;fill-opacity:1;stroke:none;stroke-width:1px;stroke-linecap:butt;stroke-linejoin:miter;stroke-opacity:1"
       d="m 170,20 c 19,-33 65,-15 67,7 16.48053,14.362029 16,54 1,63 -3.83483,2.300897 -4.11888,-1.324357 -2,-5 18.01648,-31.253389 -13.71147,-88.8277296 -61,-64 -3.25609,1.709534 -8.31211,4.752606 -5,-1 z"
       id="path3"
       sodipodi:nodetypes="scssss" />
  </g>
</svg>
