<?xml version="1.0" encoding="UTF-8" standalone="no"?>
<!-- Created with Inkscape (http://www.inkscape.org/) -->

<svg
   xml:space="preserve"
   sodipodi:docname="tail.svg"
   viewBox="0 0 386 255"
   height="255"
   width="386"
   id="svg3310"
   version="1.1"
   inkscape:version="1.2.2 (b0a8486541, 2022-12-01)"
   xmlns:inkscape="http://www.inkscape.org/namespaces/inkscape"
   xmlns:sodipodi="http://sodipodi.sourceforge.net/DTD/sodipodi-0.dtd"
   xmlns:xlink="http://www.w3.org/1999/xlink"
   xmlns="http://www.w3.org/2000/svg"
   xmlns:svg="http://www.w3.org/2000/svg"><defs
     id="defs3314" /><sodipodi:namedview
     id="namedview3312"
     pagecolor="#ffffff"
     bordercolor="#666666"
     borderopacity="1.0"
     inkscape:showpageshadow="2"
     inkscape:pageopacity="0.0"
     inkscape:pagecheckerboard="0"
     inkscape:deskcolor="#d1d1d1"
     showgrid="false"
     inkscape:zoom="3.0932642"
     inkscape:cx="22.306533"
     inkscape:cy="134.16248"
     inkscape:window-width="1920"
     inkscape:window-height="1043"
     inkscape:window-x="0"
     inkscape:window-y="0"
     inkscape:window-maximized="1"
     inkscape:current-layer="g3316"
     showguides="true" /><g
     inkscape:groupmode="layer"
     inkscape:label="tail"
     id="g3316"
     style="display:inline"><image
       width="386"
       height="255"
       xlink:href="tail.png"
       id="original"
       style="display:none" /><path
       d="m 29.709246,22.109248 c 4.327772,7.006849 11.904131,17.033742 16.874411,24.742211 18.136035,28.127403 33.842684,36.404306 58.967413,58.000201 34.45034,29.6117 48.08963,37.74628 68.71987,41.35339 46.69184,8.16386 74.66975,-0.0823 74.66975,-0.0823 0.0256,0.0516 -60.13163,14.39124 -64.28949,-29.12492 -1.37267,-14.36634 1.21837,-21.756071 15.40118,-36.705635 21.28715,-22.437983 61.28533,-33.692288 88.73835,-25.248375 42.97944,13.219482 62.07093,25.743365 82.18889,53.20785 14.0899,19.23515 7.89482,60.62467 6.21515,65.28347 -7.19399,19.95353 -18.80584,40.41513 -36.4861,52.13286 -30.22756,20.03356 -63.55472,29.29632 -106.39113,22.72368 -29.15223,-4.473 -58.20215,-14.70968 -82.9819,-30.70418 C 117.33391,195.74052 89.348639,164.3682 66.053073,131.27583 44.242366,100.29276 26.53866,63.765876 16.822437,28.819698 c 7.413224,-2.578406 6.779924,-2.784073 12.886809,-6.71045 z"
       style="display:inline;fill:#93bba9;fill-opacity:1;stroke:#483738;stroke-width:5;stroke-linecap:butt;stroke-linejoin:round;stroke-dasharray:none;stroke-opacity:1"
       id="tail" /><path
       style="display:inline;fill:#977c9a;fill-opacity:1;stroke:#483738;stroke-width:5;stroke-linecap:butt;stroke-linejoin:miter;stroke-dasharray:none;stroke-opacity:1"
       d="M 19.983908,4.6504773 C 29.857734,4.9566317 32.222389,20.199306 25.178804,24.272771 7.8642406,34.286177 3.6908405,23.802594 3.9240961,16.346346 4.0671032,11.774982 10.110082,4.3443229 19.983908,4.6504773 Z"
       id="band" /><path
       d="M 15,8 C 13.018168,12.027107 -3.4464705,1.457376 -23.70405,3.1065689 -55.092162,5.6619114 -70.789406,15.119013 -89.84082,35.733154 c -5.314704,5.246343 -5.505282,4.672602 -6.837946,3.815619 -5.470094,-3.517604 23.717035,-43.4091708 75.486368,-43.1498006 C -9.9361797,-3.5446327 17.04406,3.8464441 15,8 Z"
       style="display:inline;fill:#bcf78b;fill-opacity:1;stroke:none;stroke-width:1;stroke-dasharray:none;stroke-opacity:1"
       id="glame"
       transform="translate(291,61)" /><path
       d="m 316.90625,223.15234 c 5.88473,3.40174 -4.2481,10.5515 -8.59647,12.30987 -19.21825,7.77139 -52.9113,11.68108 -70.51635,7.92497 -2.98868,-0.90768 -4.28543,-4.06987 -6.4292,-5.79935 -1.21447,-0.97977 -2.59595,-1.45456 -2.59674,-3.49859 9.56171,-22.59416 66.73177,-23.31147 88.13876,-10.9369 z"
       style="display:inline;fill:#b3c2bb;fill-opacity:1;stroke:none;stroke-opacity:1"
       id="shadow1" /><path
       d="m 275.95028,133.71236 c -17.18787,3.26941 -11.40303,-5.14812 -3.24293,-6.54015 13.73952,-2.34383 9.53023,5.3442 3.24293,6.54015 z"
       style="display:inline;fill:#b4c3bc;fill-opacity:1;stroke:none;stroke-opacity:1"
       id="shadow2" /></g></svg>
